<svg xmlns="http://www.w3.org/2000/svg" width="1180" height="330" viewBox="0 0 1180 330" role="img" aria-labelledby="title desc">
<title id="title">Flight Recorder Evidence Lifecycle</title>
<desc id="desc">RuleOak agentic architecture diagram</desc>
<rect width="100%" height="100%" fill="#f8fafc"/>
<defs><marker id="arrow" markerWidth="10" markerHeight="10" refX="8" refY="3" orient="auto" markerUnits="strokeWidth"><path d="M0,0 L0,6 L9,3 z" fill="#475569"/></marker></defs>
<text x="55" y="42" font-family="Inter, Arial, sans-serif" font-size="28" font-weight="700" fill="#0f172a">Flight Recorder Evidence Lifecycle</text>
<rect x="55" y="82" width="220" height="56" rx="14" fill="#ffffff" stroke="#334155" stroke-width="2"/>
<text x="165.0" y="116" text-anchor="middle" font-family="Inter, Arial, sans-serif" font-size="15" font-weight="600" fill="#0f172a">Action requested</text>
<path d="M 279 110.0 L 302 110.0" stroke="#475569" stroke-width="2" marker-end="url(#arrow)"/>
<rect x="310" y="82" width="220" height="56" rx="14" fill="#ffffff" stroke="#334155" stroke-width="2"/>
<text x="420.0" y="116" text-anchor="middle" font-family="Inter, Arial, sans-serif" font-size="15" font-weight="600" fill="#0f172a">Policy decision</text>
<path d="M 534 110.0 L 557 110.0" stroke="#475569" stroke-width="2" marker-end="url(#arrow)"/>
<rect x="565" y="82" width="220" height="56" rx="14" fill="#ffffff" stroke="#334155" stroke-width="2"/>
<text x="675.0" y="116" text-anchor="middle" font-family="Inter, Arial, sans-serif" font-size="15" font-weight="600" fill="#0f172a">Approval request</text>
<path d="M 789 110.0 L 812 110.0" stroke="#475569" stroke-width="2" marker-end="url(#arrow)"/>
<rect x="820" y="82" width="220" height="56" rx="14" fill="#ffffff" stroke="#334155" stroke-width="2"/>
<text x="930.0" y="116" text-anchor="middle" font-family="Inter, Arial, sans-serif" font-size="15" font-weight="600" fill="#0f172a">Execution result</text>
<path d="M 930.0 143 L 930.0 176" stroke="#475569" stroke-width="2" marker-end="url(#arrow)"/>
<rect x="55" y="182" width="220" height="56" rx="14" fill="#ffffff" stroke="#334155" stroke-width="2"/>
<text x="165.0" y="216" text-anchor="middle" font-family="Inter, Arial, sans-serif" font-size="15" font-weight="600" fill="#0f172a">Replay timeline</text>
<path d="M 279 210.0 L 302 210.0" stroke="#475569" stroke-width="2" marker-end="url(#arrow)"/>
<rect x="310" y="182" width="220" height="56" rx="14" fill="#ffffff" stroke="#334155" stroke-width="2"/>
<text x="420.0" y="216" text-anchor="middle" font-family="Inter, Arial, sans-serif" font-size="15" font-weight="600" fill="#0f172a">Incident report</text>
</svg>